<svg width="31" height="22" viewBox="0 0 31 22" fill="none" xmlns="http://www.w3.org/2000/svg">
<g clip-path="url(#clip0_76_427)">
<mask id="mask0_76_427" style="mask-type:luminance" maskUnits="userSpaceOnUse" x="0" y="0" width="31" height="22">
<path d="M31 0H0V22H31V0Z" fill="white"/>
</mask>
<g mask="url(#mask0_76_427)">
<path d="M0 2.75C0 1.23122 1.18964 0 2.65714 0H28.3429C29.8104 0 31 1.23122 31 2.75V19.25C31 20.7688 29.8104 22 28.3429 22H2.65714C1.18964 22 0 20.7688 0 19.25V2.75Z" fill="#B2FCE4"/>
<path fill-rule="evenodd" clip-rule="evenodd" d="M28.0034 8.83903L28.804 9.31253C28.9286 9.38325 29.0327 9.48693 29.1058 9.61301C29.1788 9.7391 29.2181 9.88306 29.2197 10.0301C29.2212 10.177 29.1849 10.3218 29.1146 10.4496C29.0442 10.5773 28.9423 10.6833 28.8193 10.7568L28.0186 11.2382L27.2103 11.7196C27.0875 11.7912 26.9488 11.8282 26.8079 11.8272C26.667 11.8261 26.5288 11.7869 26.407 11.7136C26.2852 11.6402 26.1841 11.5351 26.1137 11.4089C26.0433 11.2825 26.0059 11.1394 26.0055 10.9936V10.8673C26.0056 10.8377 25.9981 10.8087 25.9838 10.7831C25.9694 10.7576 25.9487 10.7364 25.9238 10.722C25.8989 10.7075 25.8708 10.7001 25.8422 10.7007C25.8137 10.7013 25.7858 10.7097 25.7614 10.7252L24.9989 11.1593L24.2363 11.6012C24.2126 11.616 24.1931 11.6368 24.1794 11.6617C24.1658 11.6866 24.1587 11.7147 24.1587 11.7433C24.1587 11.7719 24.1658 11.8 24.1794 11.8249C24.1931 11.8498 24.2126 11.8706 24.2363 11.8853L24.9989 12.3273L25.7614 12.7693C25.7863 12.7851 25.8149 12.7937 25.8442 12.7939C25.8734 12.7942 25.9022 12.7862 25.9273 12.7707C25.9524 12.7553 25.973 12.733 25.9868 12.7063C26.0006 12.6796 26.007 12.6495 26.0055 12.6193V12.3668C26.0061 12.3384 26.0137 12.3106 26.0277 12.2862C26.0416 12.2617 26.0614 12.2414 26.0852 12.2271C26.1089 12.2128 26.1357 12.2051 26.1632 12.2047C26.1907 12.2043 26.2177 12.2112 26.2418 12.2247L26.6155 12.4536C26.6395 12.4679 26.6592 12.4886 26.6727 12.5137C26.6861 12.5387 26.6927 12.567 26.6917 12.5956V12.6982C26.6936 12.845 26.6577 12.9896 26.5879 13.1173C26.518 13.245 26.4166 13.3512 26.2941 13.4251C26.1715 13.4989 26.0322 13.5378 25.8904 13.5376C25.7486 13.5375 25.6094 13.4984 25.4869 13.4243L24.6786 12.9429L23.8779 12.4693C23.7541 12.3973 23.6511 12.2924 23.5795 12.1655C23.5078 12.0386 23.47 11.8942 23.47 11.7472C23.47 11.6003 23.5078 11.4559 23.5795 11.329C23.6511 11.2021 23.7541 11.0972 23.8779 11.0251L24.6405 10.5437L25.4717 10.1017C25.5919 10.0297 25.728 9.99096 25.8669 9.98926C26.0058 9.98752 26.1428 10.0229 26.2647 10.0919C26.3865 10.1609 26.4891 10.2612 26.5626 10.3832C26.6361 10.5052 26.6779 10.6447 26.6841 10.7884V10.9146C26.684 10.9442 26.6915 10.9733 26.7058 10.9988C26.7202 11.0244 26.7409 11.0455 26.7657 11.06C26.7906 11.0745 26.8188 11.0818 26.8474 11.0812C26.8759 11.0806 26.9038 11.0722 26.9281 11.0567L27.6907 10.6226L28.4533 10.1807C28.4769 10.1659 28.4966 10.1451 28.5102 10.1202C28.5238 10.0953 28.5309 10.0672 28.5309 10.0386C28.5309 10.01 28.5238 9.98188 28.5102 9.95699C28.4966 9.93211 28.4769 9.9113 28.4533 9.89654L27.6907 9.45461L26.9281 9.01264C26.9032 8.99449 26.8738 8.98409 26.8433 8.98267C26.8128 8.98125 26.7826 8.98885 26.7561 9.00458C26.7297 9.02034 26.7082 9.04358 26.6941 9.07158C26.68 9.09954 26.6739 9.13112 26.6765 9.16261V9.41515C26.6774 9.44329 26.6711 9.4712 26.6581 9.49595C26.6451 9.5207 26.6259 9.54142 26.6026 9.5559C26.5792 9.57039 26.5526 9.57818 26.5253 9.57841C26.4981 9.57864 26.4713 9.5713 26.4477 9.55719L26.0665 9.32834C26.0425 9.31404 26.0228 9.29323 26.0093 9.26825C25.9959 9.24323 25.9893 9.21486 25.9902 9.18626V9.08368C25.9907 8.93784 26.028 8.79466 26.0985 8.66839C26.1689 8.54207 26.27 8.43702 26.3918 8.36364C26.5135 8.29026 26.6518 8.25112 26.7926 8.25002C26.9335 8.24897 27.0723 8.28605 27.1951 8.35759L28.0034 8.83903ZM19.3309 10.3329C19.4739 10.4809 19.5542 10.6817 19.5542 10.8909C19.5542 11.1003 19.4739 11.301 19.3309 11.449C19.1879 11.597 18.9939 11.6801 18.7917 11.6801C18.5895 11.6801 18.3955 11.597 18.2525 11.449C18.1094 11.301 18.0291 11.1003 18.0291 10.8909C18.0291 10.6817 18.1094 10.4809 18.2525 10.3329C18.3955 10.1849 18.5895 10.1017 18.7917 10.1017C18.9939 10.1017 19.1879 10.1849 19.3309 10.3329ZM19.5542 11.9406V12.3115L20.2329 12.3194V9.47038H19.5542V9.82554C19.4521 9.69561 19.3229 9.5912 19.1764 9.52016C19.0298 9.44911 18.8697 9.41323 18.7078 9.41515C18.5256 9.41918 18.3459 9.46076 18.1793 9.53743C18.0128 9.61416 17.8627 9.72439 17.7377 9.8618C17.6128 9.99916 17.5155 10.1609 17.4517 10.3376C17.3878 10.5143 17.3586 10.7024 17.3657 10.8909C17.3554 11.0779 17.3817 11.2651 17.4431 11.4413C17.5045 11.6174 17.5997 11.7789 17.7229 11.916C17.8461 12.0531 17.9949 12.163 18.1602 12.2392C18.3255 12.3153 18.504 12.356 18.6849 12.3589C18.8509 12.3611 19.0152 12.3247 19.1657 12.2523C19.3161 12.1799 19.449 12.0733 19.5542 11.9406ZM16.4201 10.8909C16.4201 10.7348 16.3754 10.5823 16.2916 10.4525C16.2078 10.3227 16.0887 10.2215 15.9494 10.1618C15.81 10.1021 15.6567 10.0864 15.5088 10.1169C15.3609 10.1473 15.225 10.2225 15.1183 10.3329C15.0117 10.4432 14.9391 10.5839 14.9097 10.737C14.8802 10.8901 14.8953 11.0487 14.9531 11.1929C15.0108 11.3372 15.1085 11.4604 15.2339 11.5471C15.3593 11.6339 15.5067 11.6801 15.6576 11.6801C15.8598 11.6801 16.0538 11.597 16.1968 11.449C16.3398 11.301 16.4201 11.1003 16.4201 10.8909ZM14.2468 13.4716V9.47038H14.9255V9.84131C15.0285 9.7078 15.1598 9.60064 15.3092 9.52813C15.4586 9.45558 15.6222 9.4196 15.7872 9.42303C15.9684 9.42597 16.1472 9.46662 16.3129 9.54266C16.4787 9.61865 16.6279 9.72847 16.7517 9.86546C16.8756 10.0025 16.9715 10.1638 17.0337 10.34C17.096 10.5162 17.1233 10.7036 17.114 10.8909C17.1212 11.0795 17.0919 11.2676 17.0281 11.4443C16.9642 11.621 16.867 11.7827 16.742 11.9201C16.6171 12.0575 16.467 12.1678 16.3004 12.2444C16.1339 12.3211 15.9542 12.3627 15.772 12.3668C15.6143 12.3703 15.4579 12.3375 15.3141 12.2706C15.1704 12.2037 15.0428 12.1044 14.9408 11.98V13.4795L14.2468 13.4716ZM23.5576 9.47038L21.6817 13.4796H20.9192L21.6208 11.9801L20.5074 9.47038H21.27L21.9791 11.1514L22.7417 9.47038H23.5576ZM13.0268 9.7545C13.1215 9.60861 13.2627 9.50182 13.4258 9.45278C13.5889 9.40374 13.7634 9.41556 13.919 9.48615V10.2122C13.7713 10.124 13.6007 10.0854 13.4309 10.1017C13.313 10.1266 13.2084 10.1963 13.1378 10.2972C13.0672 10.398 13.0358 10.5226 13.0496 10.6463V12.3352H12.3557V9.47038H13.0268V9.7545ZM4.58525 11.254C4.51284 11.5772 4.33397 11.8643 4.07933 12.0659C3.82469 12.2675 3.51017 12.3711 3.18978 12.3588C2.81361 12.3588 2.45284 12.2042 2.18685 11.9289C1.92086 11.6537 1.77142 11.2802 1.77142 10.8909C1.77142 10.5016 1.92086 10.1283 2.18685 9.85295C2.45284 9.57768 2.81361 9.42303 3.18978 9.42303C3.50457 9.41405 3.81276 9.51741 4.06268 9.71568C4.31259 9.91395 4.48902 10.1952 4.5624 10.5121H3.86845C3.80323 10.3887 3.70734 10.2857 3.5907 10.2135C3.47406 10.1413 3.34091 10.1027 3.20503 10.1017C3.00279 10.1017 2.80883 10.1849 2.66582 10.3329C2.52281 10.4809 2.44247 10.6816 2.44247 10.8909C2.44247 11.1003 2.52281 11.301 2.66582 11.449C2.80883 11.597 3.00279 11.6801 3.20503 11.6801C3.34633 11.6821 3.48498 11.6403 3.60319 11.5602C3.72139 11.48 3.81376 11.3652 3.86845 11.2303L4.58525 11.254ZM4.90552 8.30236V12.3115H5.57659V8.30236H4.90552ZM6.63652 11.0804C6.65016 11.2638 6.73129 11.4349 6.86326 11.5583C6.99523 11.6817 7.16795 11.7479 7.34571 11.7433C7.47529 11.7436 7.60279 11.7097 7.71621 11.6448C7.82962 11.5799 7.92519 11.4861 7.99388 11.3724H8.70307C8.61454 11.6724 8.43102 11.933 8.182 12.1119C7.93298 12.2909 7.63304 12.3779 7.33043 12.3589C7.14222 12.368 6.95423 12.3362 6.77859 12.2655C6.60295 12.1948 6.44352 12.0869 6.31066 11.9486C6.17776 11.8103 6.07431 11.6448 6.007 11.4626C5.93964 11.2804 5.90992 11.0857 5.91971 10.8909C5.91444 10.6957 5.94774 10.5013 6.01754 10.3198C6.08733 10.1383 6.1922 9.9734 6.32568 9.83526C6.45916 9.69712 6.61845 9.58863 6.79382 9.5164C6.96924 9.44416 7.15701 9.4097 7.34571 9.41515C7.5337 9.40961 7.72081 9.44407 7.89543 9.51649C8.07 9.58891 8.22837 9.69767 8.36065 9.83604C8.49293 9.97445 8.59634 10.1395 8.66441 10.321C8.73252 10.5024 8.76383 10.6964 8.75643 10.8909C8.76427 10.9512 8.76427 11.0123 8.75643 11.0725L6.63652 11.0804ZM8.01673 10.6384C7.99587 10.4697 7.91456 10.3152 7.78883 10.2056C7.66315 10.096 7.5023 10.0392 7.33805 10.0465C7.17255 10.0405 7.0106 10.0974 6.88279 10.2065C6.75498 10.3155 6.67009 10.4691 6.64414 10.6384H8.01673ZM11.2271 11.9485V12.3115H11.8982V9.47038H11.2271V9.83343C11.1231 9.70376 10.9925 9.59963 10.8448 9.52868C10.697 9.45768 10.5359 9.42161 10.373 9.42303C10.1912 9.42606 10.0117 9.46667 9.84515 9.54248C9.67864 9.61833 9.52846 9.72783 9.4034 9.86459C9.27838 10.0014 9.181 10.1626 9.11705 10.3388C9.0531 10.5151 9.02383 10.7028 9.03096 10.8909C9.02064 11.0786 9.04721 11.2664 9.10904 11.4431C9.1709 11.6198 9.26674 11.7816 9.39078 11.9188C9.51482 12.0561 9.66451 12.1658 9.83072 12.2415C9.99692 12.3171 10.1762 12.3571 10.3578 12.3589C10.523 12.361 10.6865 12.3253 10.8368 12.2543C10.9871 12.1834 11.1204 12.0789 11.2271 11.9485ZM11.0986 10.4525C11.1824 10.5823 11.2271 10.7349 11.2271 10.8909H11.2195C11.2195 11.0989 11.1402 11.2984 10.9988 11.4463C10.8575 11.594 10.6655 11.6781 10.4646 11.6801C10.3137 11.6801 10.1663 11.6339 10.0409 11.5471C9.91552 11.4604 9.81778 11.3372 9.76003 11.193C9.70233 11.0487 9.68723 10.8901 9.71668 10.737C9.74609 10.5839 9.81871 10.4433 9.92535 10.3329C10.032 10.2225 10.1679 10.1474 10.3158 10.1169C10.4637 10.0865 10.6171 10.1021 10.7564 10.1618C10.8957 10.2215 11.0148 10.3227 11.0986 10.4525Z" fill="black"/>
</g>
</g>
<defs>
<clipPath id="clip0_76_427">
<rect width="31" height="22" fill="white"/>
</clipPath>
</defs>
</svg>
