<svg width="31" height="22" viewBox="0 0 31 22" fill="none" xmlns="http://www.w3.org/2000/svg">
<g clip-path="url(#clip0_76_437)">
<path d="M0 2.75C0 1.23122 1.18964 0 2.65714 0H28.3429C29.8104 0 31 1.23122 31 2.75V19.25C31 20.7688 29.8104 22 28.3429 22H2.65714C1.18964 22 0 20.7688 0 19.25V2.75Z" fill="white"/>
<path fill-rule="evenodd" clip-rule="evenodd" d="M14.641 14.4451V11.6759H16.0219C16.5878 11.6759 17.0655 11.4796 17.4548 11.0926L17.5483 10.9945C18.2595 10.1932 18.2128 8.94487 17.4548 8.20347C17.0758 7.811 16.5567 7.59842 16.0219 7.60928H13.8051V14.4451H14.641ZM14.6411 10.8364V8.44877H16.043C16.3442 8.44877 16.6298 8.56871 16.8427 8.78674C17.2944 9.24466 17.3048 10.0078 16.8686 10.4821C16.6557 10.7165 16.3546 10.8473 16.043 10.8364H14.6411ZM21.4472 10.1332C21.089 9.7898 20.601 9.61536 19.9832 9.61536C19.1889 9.61536 18.5918 9.92061 18.1972 10.5257L18.9345 11.0108C19.2044 10.5966 19.5731 10.3894 20.0403 10.3894C20.3362 10.3894 20.6217 10.5039 20.845 10.7111C21.0631 10.9073 21.1877 11.1907 21.1877 11.4905V11.6923C20.8658 11.5069 20.4608 11.4088 19.9624 11.4088C19.381 11.4088 18.9137 11.5505 18.5659 11.8394C18.218 12.1284 18.0415 12.5099 18.0415 12.9951C18.0311 13.4366 18.2128 13.8564 18.5347 14.1398C18.8618 14.4451 19.2771 14.5977 19.7651 14.5977C20.3414 14.5977 20.7983 14.3306 21.1461 13.7964H21.1825V14.4451H21.982V11.5614C21.982 10.9564 21.8055 10.4766 21.4472 10.1332ZM19.1786 13.5838C19.0073 13.453 18.9034 13.2404 18.9034 13.0114C18.9034 12.7552 19.0177 12.5426 19.2409 12.3737C19.4694 12.2047 19.755 12.1174 20.0925 12.1174C20.5598 12.112 20.9233 12.221 21.1829 12.4391C21.1829 12.8098 21.0427 13.1314 20.7675 13.4039C20.5183 13.6656 20.1808 13.8128 19.8277 13.8128C19.594 13.8182 19.3655 13.7365 19.1786 13.5838ZM23.7783 16.5002L26.5714 9.76799H25.6629L24.3702 13.1259H24.3546L23.0307 9.76799H22.1222L23.9548 14.1453L22.9165 16.5002H23.7783Z" fill="#3C4043"/>
<path d="M11.7553 11.0761C11.7553 10.809 11.7345 10.5419 11.693 10.2803H8.16785V11.7903H10.1874C10.1043 12.2754 9.83436 12.7115 9.43978 12.9841V13.9653H10.6443C11.3504 13.2839 11.7553 12.2754 11.7553 11.0761Z" fill="#4285F4"/>
<path d="M8.16799 14.9138C9.17518 14.9138 10.0266 14.565 10.6444 13.9653L9.43996 12.9841C9.1025 13.224 8.6716 13.3602 8.16799 13.3602C7.19197 13.3602 6.36649 12.6679 6.07057 11.7412H4.82977V12.7551C5.46315 14.0798 6.75589 14.9138 8.16799 14.9138Z" fill="#34A853"/>
<path d="M6.0707 11.741C5.91495 11.2559 5.91495 10.7271 6.0707 10.2365V9.22803H4.82972C4.29488 10.3346 4.29488 11.6429 4.82972 12.7495L6.0707 11.741Z" fill="#FBBC04"/>
<path d="M8.16799 8.61777C8.70274 8.60691 9.21672 8.81948 9.60089 9.2065L10.6704 8.08358C9.9903 7.41854 9.09732 7.05329 8.16799 7.0642C6.75589 7.0642 5.46315 7.90369 4.82977 9.22832L6.07057 10.2422C6.36649 9.31008 7.19197 8.61777 8.16799 8.61777Z" fill="#EA4335"/>
</g>
<defs>
<clipPath id="clip0_76_437">
<rect width="31" height="22" fill="white"/>
</clipPath>
</defs>
</svg>
