<svg width="185" height="38" viewBox="0 0 185 38" fill="none" xmlns="http://www.w3.org/2000/svg">
<path d="M1.44813 18.48C1.44813 17.0933 1.69346 15.7387 2.18413 14.416C2.67479 13.072 3.38946 11.856 4.32812 10.768C5.28813 9.65867 6.45079 8.784 7.81613 8.144C9.18146 7.48267 10.7281 7.152 12.4561 7.152C14.5041 7.152 16.2748 7.62133 17.7681 8.56C19.2615 9.47733 20.3708 10.6613 21.0961 12.112L18.2801 14C17.8535 13.0827 17.3095 12.3573 16.6481 11.824C16.0081 11.2907 15.3041 10.9173 14.5361 10.704C13.7895 10.4907 13.0535 10.384 12.3281 10.384C11.1335 10.384 10.0881 10.6293 9.19213 11.12C8.29613 11.5893 7.53879 12.2187 6.92013 13.008C6.32279 13.7973 5.86413 14.6827 5.54413 15.664C5.24546 16.6453 5.09613 17.6267 5.09613 18.608C5.09613 19.696 5.27746 20.752 5.64013 21.776C6.00279 22.7787 6.50413 23.6747 7.14413 24.464C7.80546 25.232 8.58413 25.84 9.48013 26.288C10.3761 26.736 11.3575 26.96 12.4241 26.96C13.1495 26.96 13.9068 26.832 14.6961 26.576C15.4855 26.32 16.2108 25.9253 16.8721 25.392C17.5548 24.8373 18.0881 24.112 18.4721 23.216L21.4481 24.912C20.9788 26.0427 20.2428 27.0027 19.2401 27.792C18.2588 28.5813 17.1495 29.1787 15.9121 29.584C14.6961 29.9893 13.4908 30.192 12.2961 30.192C10.6961 30.192 9.23479 29.8613 7.91213 29.2C6.58946 28.5173 5.44813 27.6213 4.48813 26.512C3.52813 25.3813 2.78146 24.1227 2.24813 22.736C1.71479 21.328 1.44813 19.9093 1.44813 18.48ZM40.3231 30H36.8031V20.624C36.8031 19.1093 36.5258 17.9787 35.9711 17.232C35.4165 16.4853 34.6378 16.112 33.6351 16.112C33.0165 16.112 32.3765 16.2827 31.7151 16.624C31.0538 16.9653 30.4671 17.4347 29.9551 18.032C29.4431 18.608 29.0698 19.28 28.8351 20.048V30H25.3151V6.64H28.8351V16.624C29.4751 15.4933 30.3498 14.608 31.4591 13.968C32.5685 13.3067 33.7631 12.976 35.0431 12.976C36.0885 12.976 36.9525 13.1573 37.6351 13.52C38.3178 13.8827 38.8511 14.384 39.2351 15.024C39.6405 15.6427 39.9178 16.368 40.0671 17.2C40.2378 18.0107 40.3231 18.8747 40.3231 19.792V30ZM45.4089 30V13.264H48.9289V30H45.4089ZM45.4089 10.512V6.64H48.9289V10.512H45.4089ZM61.7429 30.32C60.4415 30.32 59.2575 30.096 58.1909 29.648C57.1455 29.1787 56.2389 28.5387 55.4709 27.728C54.7029 26.9173 54.1055 25.9893 53.6789 24.944C53.2735 23.8987 53.0709 22.7893 53.0709 21.616C53.0709 20.0373 53.4229 18.5973 54.1269 17.296C54.8522 15.9947 55.8549 14.9493 57.1349 14.16C58.4362 13.3707 59.9722 12.976 61.7429 12.976C63.4495 12.976 64.9322 13.36 66.1909 14.128C67.4709 14.8747 68.4095 15.8773 69.0069 17.136L65.5829 18.224C65.1989 17.52 64.6549 16.976 63.9509 16.592C63.2682 16.1867 62.5109 15.984 61.6789 15.984C60.7402 15.984 59.8869 16.2293 59.1189 16.72C58.3722 17.1893 57.7749 17.8507 57.3269 18.704C56.9002 19.536 56.6869 20.5067 56.6869 21.616C56.6869 22.6827 56.9109 23.6533 57.3589 24.528C57.8069 25.3813 58.4042 26.064 59.1509 26.576C59.9189 27.0667 60.7722 27.312 61.7109 27.312C62.2869 27.312 62.8415 27.216 63.3749 27.024C63.9295 26.8107 64.4095 26.5333 64.8149 26.192C65.2202 25.8293 65.5082 25.4347 65.6789 25.008L69.1349 26.032C68.7722 26.864 68.2282 27.6 67.5029 28.24C66.7989 28.88 65.9562 29.392 64.9749 29.776C64.0149 30.1387 62.9375 30.32 61.7429 30.32ZM114.576 30V7.28H124.464C125.488 7.28 126.426 7.49333 127.28 7.92C128.133 8.34667 128.869 8.912 129.488 9.616C130.128 10.32 130.618 11.1093 130.96 11.984C131.322 12.8587 131.504 13.7547 131.504 14.672C131.504 15.6747 131.322 16.6347 130.96 17.552C130.597 18.4693 130.074 19.2587 129.392 19.92C128.73 20.5813 127.952 21.0613 127.056 21.36L132.4 30H128.368L123.44 22.096H118.16V30H114.576ZM118.16 18.928H124.432C125.093 18.928 125.68 18.736 126.192 18.352C126.704 17.968 127.109 17.456 127.408 16.816C127.706 16.1547 127.856 15.44 127.856 14.672C127.856 13.8827 127.685 13.1787 127.344 12.56C127.002 11.92 126.554 11.408 126 11.024C125.466 10.64 124.88 10.448 124.24 10.448H118.16V18.928ZM134.787 25.104C134.787 24.0373 135.085 23.1093 135.683 22.32C136.301 21.5093 137.144 20.8907 138.211 20.464C139.277 20.016 140.515 19.792 141.923 19.792C142.669 19.792 143.427 19.8453 144.195 19.952C144.984 20.0587 145.677 20.2293 146.275 20.464V19.408C146.275 18.2347 145.923 17.3173 145.219 16.656C144.515 15.9947 143.501 15.664 142.179 15.664C141.24 15.664 140.355 15.8347 139.523 16.176C138.691 16.496 137.805 16.9547 136.867 17.552L135.683 15.184C136.792 14.4373 137.901 13.8827 139.011 13.52C140.141 13.1573 141.325 12.976 142.563 12.976C144.803 12.976 146.563 13.5733 147.843 14.768C149.144 15.9413 149.795 17.616 149.795 19.792V26.032C149.795 26.4373 149.859 26.7253 149.987 26.896C150.136 27.0667 150.381 27.1627 150.723 27.184V30C150.403 30.064 150.115 30.1067 149.859 30.128C149.603 30.1493 149.389 30.16 149.219 30.16C148.472 30.16 147.907 29.9787 147.523 29.616C147.139 29.2533 146.915 28.8267 146.851 28.336L146.755 27.376C146.029 28.3147 145.101 29.04 143.971 29.552C142.84 30.064 141.699 30.32 140.547 30.32C139.437 30.32 138.445 30.096 137.571 29.648C136.696 29.1787 136.013 28.5493 135.523 27.76C135.032 26.9707 134.787 26.0853 134.787 25.104ZM145.443 26.128C145.699 25.8507 145.901 25.5733 146.051 25.296C146.2 25.0187 146.275 24.7733 146.275 24.56V22.64C145.677 22.4053 145.048 22.2347 144.387 22.128C143.725 22 143.075 21.936 142.435 21.936C141.155 21.936 140.109 22.192 139.299 22.704C138.509 23.216 138.115 23.92 138.115 24.816C138.115 25.3067 138.243 25.776 138.499 26.224C138.776 26.672 139.16 27.0347 139.651 27.312C140.163 27.5893 140.792 27.728 141.539 27.728C142.307 27.728 143.043 27.5787 143.747 27.28C144.451 26.9813 145.016 26.5973 145.443 26.128ZM164.473 16.304C163.108 16.3253 161.892 16.6347 160.825 17.232C159.78 17.8293 159.033 18.672 158.585 19.76V30H155.065V13.264H158.329V17.008C158.905 15.856 159.662 14.9387 160.601 14.256C161.54 13.552 162.532 13.168 163.577 13.104C163.79 13.104 163.961 13.104 164.089 13.104C164.238 13.104 164.366 13.1147 164.473 13.136V16.304ZM175.337 30.32C174.035 30.32 172.851 30.096 171.785 29.648C170.739 29.1787 169.833 28.5493 169.065 27.76C168.297 26.9493 167.699 26.032 167.273 25.008C166.867 23.9627 166.665 22.8533 166.665 21.68C166.665 20.1013 167.027 18.6613 167.753 17.36C168.478 16.0373 169.491 14.9813 170.793 14.192C172.094 13.3813 173.619 12.976 175.369 12.976C177.118 12.976 178.622 13.3813 179.881 14.192C181.161 14.9813 182.153 16.0267 182.857 17.328C183.561 18.6293 183.913 20.0267 183.913 21.52C183.913 21.776 183.902 22.0213 183.881 22.256C183.859 22.4693 183.838 22.6507 183.817 22.8H170.409C170.473 23.7813 170.739 24.6453 171.209 25.392C171.699 26.1173 172.318 26.6933 173.065 27.12C173.811 27.5253 174.611 27.728 175.465 27.728C176.403 27.728 177.289 27.4933 178.121 27.024C178.974 26.5547 179.55 25.936 179.849 25.168L182.857 26.032C182.494 26.8427 181.939 27.5787 181.193 28.24C180.467 28.88 179.603 29.392 178.601 29.776C177.598 30.1387 176.51 30.32 175.337 30.32ZM170.313 20.464H180.425C180.361 19.504 180.083 18.6613 179.593 17.936C179.123 17.1893 178.515 16.6133 177.769 16.208C177.043 15.7813 176.233 15.568 175.337 15.568C174.462 15.568 173.651 15.7813 172.905 16.208C172.179 16.6133 171.582 17.1893 171.113 17.936C170.643 18.6613 170.377 19.504 170.313 20.464Z" fill="#111111"/>
<path d="M97.3641 30L86.4521 18.448C85.5348 17.4667 84.8095 16.6347 84.2761 15.952C83.7428 15.2693 83.3588 14.64 83.1241 14.064C82.8895 13.488 82.7721 12.8907 82.7721 12.272C82.7721 11.2267 83.0281 10.3093 83.5401 9.52C84.0735 8.73067 84.7988 8.112 85.7161 7.664C86.6335 7.216 87.6575 6.992 88.7881 6.992C89.8335 6.992 90.7935 7.184 91.6681 7.568C92.5428 7.93067 93.2468 8.47467 93.7801 9.2C94.3135 9.904 94.5801 10.7787 94.5801 11.824C94.5801 12.8053 94.3241 13.6907 93.8121 14.48C93.3001 15.2693 92.6175 15.9947 91.7641 16.656C90.9108 17.3173 89.9615 17.968 88.9161 18.608C88.1055 19.1413 87.3695 19.6747 86.7081 20.208C86.0468 20.72 85.5241 21.2747 85.1401 21.872C84.7775 22.448 84.5961 23.0987 84.5961 23.824C84.5961 24.5493 84.7988 25.2 85.2041 25.776C85.6095 26.3307 86.1535 26.768 86.8361 27.088C87.5188 27.3867 88.2655 27.536 89.0761 27.536C90.0788 27.536 91.0281 27.3013 91.9241 26.832C92.8201 26.3627 93.6201 25.7013 94.3241 24.848C95.0281 23.9733 95.5721 22.9493 95.9561 21.776C96.3615 20.6027 96.5641 19.3227 96.5641 17.936H99.4441C99.4441 19.8133 99.1455 21.5093 98.5481 23.024C97.9721 24.5387 97.1828 25.84 96.1801 26.928C95.1988 28.016 94.0575 28.8587 92.7561 29.456C91.4761 30.032 90.1215 30.32 88.6921 30.32C87.2201 30.32 85.9188 30.032 84.7881 29.456C83.6575 28.8587 82.7721 28.0693 82.1321 27.088C81.5135 26.1067 81.2041 25.008 81.2041 23.792C81.2041 22.5973 81.4708 21.5627 82.0041 20.688C82.5588 19.792 83.2628 19.0027 84.1161 18.32C84.9908 17.616 85.8655 16.9867 86.7401 16.432C87.6788 15.8347 88.4895 15.312 89.1721 14.864C89.8548 14.3947 90.3881 13.9253 90.7721 13.456C91.1561 12.9653 91.3481 12.4427 91.3481 11.888C91.3481 11.2053 91.1028 10.6613 90.6121 10.256C90.1428 9.82933 89.5348 9.616 88.7881 9.616C88.2335 9.616 87.7428 9.73333 87.3161 9.968C86.9108 10.2027 86.5908 10.512 86.3561 10.896C86.1215 11.28 86.0041 11.7067 86.0041 12.176C86.0041 12.496 86.0895 12.8267 86.2601 13.168C86.4308 13.488 86.7508 13.9147 87.2201 14.448C87.6895 14.96 88.3401 15.664 89.1721 16.56L102.004 30H97.3641Z" fill="#639DCB"/>
</svg>
