<svg width="31" height="22" viewBox="0 0 31 22" fill="none" xmlns="http://www.w3.org/2000/svg">
<g clip-path="url(#clip0_76_424)">
<path d="M0 2.75C0 1.23122 1.18964 0 2.65714 0H28.3429C29.8104 0 31 1.23122 31 2.75V19.25C31 20.7688 29.8104 22 28.3429 22H2.65714C1.18964 22 0 20.7688 0 19.25V2.75Z" fill="white"/>
<path fill-rule="evenodd" clip-rule="evenodd" d="M7.39237 8.18837C7.8087 8.22472 8.22503 7.9703 8.48521 7.64772C8.74109 7.31607 8.91022 6.87085 8.86686 6.4165C8.49823 6.4347 8.04288 6.67092 7.78266 7.00257C7.54418 7.2888 7.34033 7.75222 7.39237 8.18837ZM12.3449 14.0401V6.95715H14.8818C16.1915 6.95715 17.1066 7.90215 17.1066 9.28329C17.1066 10.6645 16.1742 11.6185 14.8472 11.6185H13.3944V14.0401H12.3449ZM8.86248 8.27468C8.4957 8.25259 8.16104 8.39027 7.89072 8.50146C7.71676 8.57301 7.56947 8.6336 7.45738 8.6336C7.33161 8.6336 7.17825 8.5698 7.00602 8.49812C6.78034 8.4042 6.52233 8.29682 6.25179 8.30195C5.63166 8.31103 5.05488 8.67907 4.73828 9.26514C4.08779 10.4373 4.56916 12.1728 5.19797 13.1269C5.50589 13.5994 5.87452 14.1173 6.3602 14.0992C6.57388 14.0907 6.7276 14.0224 6.88667 13.9517C7.06984 13.8703 7.26009 13.7857 7.55716 13.7857C7.84391 13.7857 8.02583 13.868 8.2005 13.9471C8.36652 14.0223 8.526 14.0945 8.76275 14.0901C9.26579 14.081 9.58239 13.6176 9.89026 13.1451C10.2225 12.638 10.3686 12.1431 10.3907 12.0679L10.3933 12.0592C10.3933 12.0592 10.3887 12.0567 10.3814 12.0533C10.2704 12 9.42136 11.5928 9.41326 10.5009C9.40507 9.58441 10.0866 9.12007 10.1939 9.04697C10.2004 9.04252 10.2049 9.03955 10.2069 9.03799C9.77317 8.36557 9.09666 8.29287 8.86248 8.27468ZM19.0234 14.0946C19.6826 14.0946 20.2941 13.7448 20.5716 13.1905H20.5933V14.0401H21.5647V10.5146C21.5647 9.49229 20.7841 8.83352 19.5829 8.83352C18.4683 8.83352 17.6443 9.50141 17.614 10.4191H18.5594C18.6374 9.98298 19.0234 9.69675 19.5525 9.69675C20.1943 9.69675 20.5543 10.0102 20.5543 10.5872V10.9779L19.2446 11.0597C18.026 11.137 17.3668 11.6594 17.3668 12.5681C17.3668 13.4858 18.0476 14.0946 19.0234 14.0946ZM19.3052 13.2541C18.7458 13.2541 18.3902 12.9725 18.3902 12.5408C18.3902 12.0956 18.7328 11.8366 19.3876 11.7957L20.5542 11.7185V12.1183C20.5542 12.7817 20.0165 13.2541 19.3052 13.2541ZM24.7868 14.3173C24.3662 15.5576 23.8848 15.9665 22.8614 15.9665C22.7833 15.9665 22.5231 15.9574 22.4624 15.9392V15.0896C22.5274 15.0987 22.6879 15.1078 22.7703 15.1078C23.2343 15.1078 23.4945 14.9033 23.655 14.3718L23.7504 14.0583L21.9723 8.90168H23.0695L24.3055 13.086H24.3271L25.5631 8.90168H26.6299L24.7868 14.3173ZM13.3943 7.884H14.6042C15.5149 7.884 16.0353 8.39284 16.0353 9.28787C16.0353 10.1829 15.5149 10.6963 14.5999 10.6963H13.3943V7.884Z" fill="black"/>
</g>
<defs>
<clipPath id="clip0_76_424">
<rect width="31" height="22" fill="white"/>
</clipPath>
</defs>
</svg>
