<svg width="48" height="48" viewBox="0 0 48 48" fill="none" xmlns="http://www.w3.org/2000/svg">
<g clip-path="url(#clip0_82_320)">
<path d="M47.475 0.359964C47.7212 0.570151 47.8928 0.854362 47.9642 1.17014C48.0356 1.48592 48.0029 1.81631 47.871 2.11196C43.281 12.402 33.642 26.622 26.586 34.032C24.6059 36.102 22.1675 37.6783 19.467 38.634C19.413 39.315 19.287 40.248 18.987 41.238C18.384 43.215 16.986 45.675 13.863 46.458C10.8387 47.1795 7.70398 47.3139 4.62899 46.854C4.05796 46.7598 3.49449 46.6244 2.94299 46.449C2.43426 46.2928 1.95984 46.0413 1.54499 45.708C1.27055 45.477 1.05985 45.1795 0.932993 44.844C0.773183 44.4146 0.777456 43.9414 0.944993 43.515C1.22999 42.78 1.89299 42.375 2.32799 42.159C3.50999 41.568 4.20299 40.8 4.92899 39.681C5.21399 39.249 5.48099 38.79 5.78999 38.265L6.14099 37.671C6.59399 36.906 7.11899 36.051 7.77899 35.127C9.36299 32.91 11.382 32.352 13.017 32.439C13.397 32.463 13.745 32.511 14.061 32.583C14.247 32.067 14.487 31.443 14.775 30.759C15.558 28.902 16.749 26.502 18.336 24.552C24.864 16.542 36.876 5.93396 45.687 0.239964C45.9582 0.0648828 46.2788 -0.0180072 46.6009 0.0036121C46.923 0.0252314 47.2296 0.150206 47.475 0.359964ZM14.115 35.736C13.7175 35.561 13.2917 35.4593 12.858 35.436C12.12 35.397 11.139 35.586 10.221 36.873C9.62999 37.698 9.15599 38.469 8.72099 39.204L8.40599 39.735C8.08799 40.278 7.76699 40.821 7.44599 41.319C6.83796 42.303 6.06696 43.1765 5.16599 43.902C7.23599 44.238 10.374 44.235 13.137 43.542C14.814 43.125 15.666 41.835 16.116 40.362C16.3369 39.631 16.464 38.875 16.494 38.112L14.115 35.736ZM18.435 35.814C18.795 35.694 19.266 35.514 19.809 35.265C21.536 34.4612 23.0978 33.342 24.414 31.965C30.114 25.977 37.65 15.255 42.57 6.07196C34.8 11.853 25.872 20.052 20.664 26.448C19.338 28.077 18.279 30.177 17.538 31.926C17.175 32.79 16.896 33.546 16.713 34.086L18.435 35.814Z" fill="#111111"/>
</g>
<defs>
<clipPath id="clip0_82_320">
<rect width="48" height="48" fill="white"/>
</clipPath>
</defs>
</svg>
