<svg width="14" height="14" viewBox="0 0 14 14" fill="none" xmlns="http://www.w3.org/2000/svg">
<path d="M11.4964 3.67034C11.5507 3.72453 11.5938 3.7889 11.6232 3.85977C11.6526 3.93064 11.6677 4.00661 11.6677 4.08334C11.6677 4.16007 11.6526 4.23604 11.6232 4.30691C11.5938 4.37778 11.5507 4.44215 11.4964 4.49634L6.24636 9.74634C6.19217 9.80066 6.1278 9.84376 6.05693 9.87317C5.98606 9.90258 5.91009 9.91771 5.83336 9.91771C5.75663 9.91771 5.68066 9.90258 5.60979 9.87317C5.53892 9.84376 5.47454 9.80066 5.42036 9.74634L3.08702 7.41301C2.97749 7.30347 2.91595 7.15491 2.91595 7.00001C2.91595 6.8451 2.97749 6.69654 3.08702 6.587C3.19656 6.47747 3.34512 6.41593 3.50002 6.41593C3.65493 6.41593 3.80349 6.47747 3.91302 6.587L5.83336 8.5085L10.6704 3.67034C10.7245 3.61601 10.7889 3.57291 10.8598 3.54351C10.9307 3.5141 11.0066 3.49896 11.0834 3.49896C11.1601 3.49896 11.2361 3.5141 11.3069 3.54351C11.3778 3.57291 11.4422 3.61601 11.4964 3.67034Z" fill="white"/>
</svg>
