<svg width="48" height="48" viewBox="0 0 48 48" fill="none" xmlns="http://www.w3.org/2000/svg">
<path d="M13.718 24.366L12.826 27.022C12.4935 28.0316 11.929 28.9492 11.1777 29.7012C10.4264 30.4532 9.50932 31.0186 8.49999 31.352L5.80999 32.246C5.74229 32.2679 5.68077 32.3057 5.63049 32.3561C5.5802 32.4064 5.54258 32.468 5.52072 32.5358C5.49885 32.6035 5.49337 32.6754 5.50472 32.7457C5.51607 32.816 5.54392 32.8826 5.58599 32.94C5.64169 33.0171 5.71995 33.0751 5.80999 33.106L8.49999 33.998C9.50013 34.3311 10.4088 34.8928 11.1539 35.6386C11.8989 36.3843 12.4598 37.2935 12.792 38.294L13.684 40.986C13.7134 41.0768 13.7709 41.1561 13.8482 41.2122C13.9254 41.2684 14.0185 41.2987 14.114 41.2987C14.2095 41.2987 14.3026 41.2684 14.3798 41.2122C14.4571 41.1561 14.5146 41.0768 14.544 40.986L15.468 38.328C15.8016 37.3283 16.3629 36.4198 17.1078 35.6742C17.8527 34.9287 18.7606 34.3665 19.76 34.032L22.45 33.14C22.5409 33.1105 22.6201 33.0531 22.6763 32.9758C22.7324 32.8986 22.7627 32.8055 22.7627 32.71C22.7627 32.6144 22.7324 32.5214 22.6763 32.4441C22.6201 32.3669 22.5409 32.3094 22.45 32.28L19.794 31.352C18.7839 31.02 17.8661 30.4551 17.1146 29.7029C16.3631 28.9507 15.799 28.0324 15.468 27.022L14.576 24.332C14.5431 24.2421 14.4826 24.1649 14.4031 24.1116C14.3236 24.0584 14.2292 24.0317 14.1336 24.0355C14.038 24.0393 13.946 24.0733 13.871 24.1327C13.7959 24.1921 13.7416 24.2738 13.716 24.366M29.84 7.16397L28.592 10.884C28.1278 12.2984 27.3377 13.5839 26.2854 14.6369C25.2331 15.6899 23.9481 16.4808 22.534 16.946L18.77 18.196C18.6424 18.2368 18.531 18.3171 18.452 18.4253C18.373 18.5335 18.3304 18.664 18.3304 18.798C18.3304 18.932 18.373 19.0625 18.452 19.1707C18.531 19.2789 18.6424 19.3592 18.77 19.4L22.534 20.65C23.9348 21.1153 25.2076 21.9013 26.251 22.9454C27.2944 23.9895 28.0796 25.2628 28.544 26.664L29.794 30.432C29.8367 30.5572 29.9176 30.6658 30.0252 30.7428C30.1327 30.8198 30.2617 30.8611 30.394 30.8611C30.5263 30.8611 30.6552 30.8198 30.7628 30.7428C30.8704 30.6658 30.9513 30.5572 30.994 30.432L32.292 26.712C32.7578 25.3116 33.5434 24.039 34.5867 22.9951C35.6299 21.9512 36.9019 21.1647 38.302 20.698L42.064 19.448C42.1916 19.4072 42.303 19.3269 42.382 19.2187C42.461 19.1105 42.5036 18.98 42.5036 18.846C42.5036 18.712 42.461 18.5815 42.382 18.4733C42.303 18.3651 42.1916 18.2848 42.064 18.244L38.348 16.946C36.9335 16.482 35.6481 15.6914 34.596 14.6382C33.5439 13.5851 32.7546 12.2989 32.292 10.884L31.042 7.11597C30.9945 6.99224 30.9094 6.88651 30.7987 6.81364C30.688 6.74078 30.5572 6.70444 30.4248 6.70974C30.2924 6.71503 30.1649 6.7617 30.0604 6.84318C29.9558 6.92465 29.8775 7.03684 29.84 7.16397Z" stroke="#111111" stroke-width="3" stroke-linecap="round" stroke-linejoin="round"/>
</svg>
