<svg width="48" height="48" viewBox="0 0 48 48" fill="none" xmlns="http://www.w3.org/2000/svg">
<path d="M6 20V10C6 9.46957 6.21071 8.96086 6.58579 8.58579C6.96086 8.21071 7.46957 8 8 8H16C16 10 17.6 14 24 14C30.4 14 32 10 32 8H40C40.5304 8 41.0391 8.21071 41.4142 8.58579C41.7893 8.96086 42 9.46957 42 10V20C42 20.5304 41.7893 21.0391 41.4142 21.4142C41.0391 21.7893 40.5304 22 40 22H38C37.4696 22 36.9609 22.2107 36.5858 22.5858C36.2107 22.9609 36 23.4696 36 24V38C36 38.5304 35.7893 39.0391 35.4142 39.4142C35.0391 39.7893 34.5304 40 34 40H14C13.4696 40 12.9609 39.7893 12.5858 39.4142C12.2107 39.0391 12 38.5304 12 38V24C12 23.4696 11.7893 22.9609 11.4142 22.5858C11.0391 22.2107 10.5304 22 10 22H8C7.46957 22 6.96086 21.7893 6.58579 21.4142C6.21071 21.0391 6 20.5304 6 20Z" stroke="#111111" stroke-width="4" stroke-linecap="round" stroke-linejoin="round"/>
</svg>
